<?xml version="1.0" encoding="UTF-8"?>
<svg width="20px" height="20px" viewBox="0 0 20 20" version="1.1" xmlns="http://www.w3.org/2000/svg" xmlns:xlink="http://www.w3.org/1999/xlink">
    <!-- Generator: Sketch 47.1 (45422) - http://www.bohemiancoding.com/sketch -->
    <title>iconfont_folder</title>
    <desc>Created with Sketch.</desc>
    <defs></defs>
    <g id="弱化调整" stroke="none" stroke-width="1" fill="none" fill-rule="evenodd">
        <g id="Artboard" transform="translate(-158.000000, -112.000000)">
            <g id="Group-3" transform="translate(158.000000, 112.000000)">
                <path d="M8,5 L18,5 C19.1045695,5 20,5.8954305 20,7 L20,17 C20,18.1045695 19.1045695,19 18,19 L2,19 C1.44771525,19 0.94771525,18.7761424 0.585786438,18.4142136 C0.223857625,18.0522847 6.76353751e-17,17.5522847 0,17 L0,4 L0,4 C-1.3527075e-16,2.8954305 0.8954305,2 2,2 L2,2 L6,2 C7.1045695,2 8,2.8954305 8,4 L8,5 Z" id="folder" fill="rgb(255, 127, 14)"></path>
                <rect id="Rectangle-19-Copy-2" opacity="0.400000006" x="0" y="0" width="20" height="20"></rect>
            </g>
        </g>
    </g>
</svg>
