<?xml version="1.0" encoding="UTF-8"?>
<svg width="20px" height="20px" viewBox="0 0 20 20" version="1.1" xmlns="http://www.w3.org/2000/svg" xmlns:xlink="http://www.w3.org/1999/xlink">
    <!-- Generator: Sketch 47.1 (45422) - http://www.bohemiancoding.com/sketch -->
    <title>iconfont_company_hq</title>
    <desc>Created with Sketch.</desc>
    <defs></defs>
    <g id="弱化调整" stroke="none" stroke-width="1" fill="none" fill-rule="evenodd">
        <g id="Artboard" transform="translate(-82.000000, -143.000000)" fill="#ffffff">
            <g id="Group-10" transform="translate(82.000000, 143.000000)">
                <path d="M2.77039275,1.76923077 L2.77039275,0 L10.7371601,0 L10.7371601,1.76923077 L12.5075529,1.76923077 L12.5075529,19.4615385 L1,19.4615385 L1,1.76923077 L2.77039275,1.76923077 Z M3.65558912,3.53846154 L3.65558912,4.42307692 L4.5407855,4.42307692 L4.5407855,3.53846154 L3.65558912,3.53846154 Z M5.42598187,3.53846154 L5.42598187,4.42307692 L6.31117825,4.42307692 L6.31117825,3.53846154 L5.42598187,3.53846154 Z M7.19637462,3.53846154 L7.19637462,4.42307692 L8.081571,4.42307692 L8.081571,3.53846154 L7.19637462,3.53846154 Z M8.96676737,3.53846154 L8.96676737,4.42307692 L9.85196375,4.42307692 L9.85196375,3.53846154 L8.96676737,3.53846154 Z M3.65558912,6.19230769 L3.65558912,7.07692308 L4.5407855,7.07692308 L4.5407855,6.19230769 L3.65558912,6.19230769 Z M5.42598187,6.19230769 L5.42598187,7.07692308 L6.31117825,7.07692308 L6.31117825,6.19230769 L5.42598187,6.19230769 Z M7.19637462,6.19230769 L7.19637462,7.07692308 L8.081571,7.07692308 L8.081571,6.19230769 L7.19637462,6.19230769 Z M8.96676737,6.19230769 L8.96676737,7.07692308 L9.85196375,7.07692308 L9.85196375,6.19230769 L8.96676737,6.19230769 Z M3.65558912,8.84615385 L3.65558912,9.73076923 L4.5407855,9.73076923 L4.5407855,8.84615385 L3.65558912,8.84615385 Z M5.42598187,8.84615385 L5.42598187,9.73076923 L6.31117825,9.73076923 L6.31117825,8.84615385 L5.42598187,8.84615385 Z M7.19637462,8.84615385 L7.19637462,9.73076923 L8.081571,9.73076923 L8.081571,8.84615385 L7.19637462,8.84615385 Z M8.96676737,8.84615385 L8.96676737,9.73076923 L9.85196375,9.73076923 L9.85196375,8.84615385 L8.96676737,8.84615385 Z M3.65558912,11.5 L3.65558912,12.3846154 L4.5407855,12.3846154 L4.5407855,11.5 L3.65558912,11.5 Z M5.42598187,11.5 L5.42598187,12.3846154 L6.31117825,12.3846154 L6.31117825,11.5 L5.42598187,11.5 Z M7.19637462,11.5 L7.19637462,12.3846154 L8.081571,12.3846154 L8.081571,11.5 L7.19637462,11.5 Z M8.96676737,11.5 L8.96676737,12.3846154 L9.85196375,12.3846154 L9.85196375,11.5 L8.96676737,11.5 Z M3.65558912,14.1538462 L3.65558912,15.0384615 L4.5407855,15.0384615 L4.5407855,14.1538462 L3.65558912,14.1538462 Z M5.42598187,14.1538462 L5.42598187,15.0384615 L6.31117825,15.0384615 L6.31117825,14.1538462 L5.42598187,14.1538462 Z M7.19637462,14.1538462 L7.19637462,15.0384615 L8.081571,15.0384615 L8.081571,14.1538462 L7.19637462,14.1538462 Z M8.96676737,14.1538462 L8.96676737,15.0384615 L9.85196375,15.0384615 L9.85196375,14.1538462 L8.96676737,14.1538462 Z M5.42598187,16.8076923 L5.42598187,19.4615385 L8.081571,19.4615385 L8.081571,16.8076923 L5.42598187,16.8076923 Z M13.3927492,4.42307692 L19.5891239,4.42307692 L19.5891239,19.4615385 L13.3927492,19.4615385 L13.3927492,4.42307692 Z M13.3927492,6.19230769 L13.3927492,7.07692308 L14.2779456,7.07692308 L14.2779456,6.19230769 L13.3927492,6.19230769 Z M15.163142,6.19230769 L15.163142,7.07692308 L16.0483384,7.07692308 L16.0483384,6.19230769 L15.163142,6.19230769 Z M16.9335347,6.19230769 L16.9335347,7.07692308 L17.8187311,7.07692308 L17.8187311,6.19230769 L16.9335347,6.19230769 Z M13.3927492,8.84615385 L13.3927492,9.73076923 L14.2779456,9.73076923 L14.2779456,8.84615385 L13.3927492,8.84615385 Z M15.163142,8.84615385 L15.163142,9.73076923 L16.0483384,9.73076923 L16.0483384,8.84615385 L15.163142,8.84615385 Z M16.9335347,8.84615385 L16.9335347,9.73076923 L17.8187311,9.73076923 L17.8187311,8.84615385 L16.9335347,8.84615385 Z M13.3927492,11.5 L13.3927492,12.3846154 L14.2779456,12.3846154 L14.2779456,11.5 L13.3927492,11.5 Z M15.163142,11.5 L15.163142,12.3846154 L16.0483384,12.3846154 L16.0483384,11.5 L15.163142,11.5 Z M16.9335347,11.5 L16.9335347,12.3846154 L17.8187311,12.3846154 L17.8187311,11.5 L16.9335347,11.5 Z M13.3927492,14.1538462 L13.3927492,15.0384615 L14.2779456,15.0384615 L14.2779456,14.1538462 L13.3927492,14.1538462 Z M15.163142,14.1538462 L15.163142,15.0384615 L16.0483384,15.0384615 L16.0483384,14.1538462 L15.163142,14.1538462 Z M16.9335347,14.1538462 L16.9335347,15.0384615 L17.8187311,15.0384615 L17.8187311,14.1538462 L16.9335347,14.1538462 Z M13.3927492,16.8076923 L13.3927492,17.6923077 L14.2779456,17.6923077 L14.2779456,16.8076923 L13.3927492,16.8076923 Z M15.163142,16.8076923 L15.163142,17.6923077 L16.0483384,17.6923077 L16.0483384,16.8076923 L15.163142,16.8076923 Z M16.9335347,16.8076923 L16.9335347,17.6923077 L17.8187311,17.6923077 L17.8187311,16.8076923 L16.9335347,16.8076923 Z" id="Combined-Shape"></path>
            </g>
        </g>
    </g>
</svg>
