<?xml version="1.0" encoding="UTF-8"?>
<svg width="103px" height="49px" viewBox="0 0 103 49" version="1.1" xmlns="http://www.w3.org/2000/svg" xmlns:xlink="http://www.w3.org/1999/xlink">
    <!-- Generator: Sketch 47.1 (45422) - http://www.bohemiancoding.com/sketch -->
    <title>iconfont_mail_ali</title>
    <desc>Created with Sketch.</desc>
    <defs></defs>
    <g id="弱化调整" stroke="none" stroke-width="1" fill="none" fill-rule="evenodd">
        <g id="Artboard" transform="translate(-510.000000, -357.000000)">
            <path d="M532,400.155312 L540.056063,363 C545.358679,363 548.496805,363 549.470443,363 C550.930899,363 552.224552,364.251267 553.223866,365.422955 C553.890076,366.20408 556.809982,370.183496 561.983584,377.361203 C567.169596,370.058554 570.074776,366.005412 570.699124,365.201777 C571.635645,363.996324 572.308259,363 573.961763,363 C575.064099,363 578.395116,363 583.954813,363 L591.523868,401 C585.308094,399.594075 581.204354,397.191416 579.212648,393.792023 C577.220941,390.39263 575.780403,384.595864 574.891033,376.401725 L562.123296,394.399956 L549.047816,376.401725 C547.672854,386.287505 545.896001,392.717881 543.717258,395.692853 C541.538515,398.667826 537.632762,400.155312 532,400.155312 Z" id="mail_ali-copy" fill="#000000"></path>
            <rect id="Rectangle-23-Copy-6" opacity="0.400000006" x="510" y="357" width="103" height="49"></rect>
        </g>
    </g>
</svg>