<?xml version="1.0" encoding="UTF-8"?>
<svg width="103px" height="49px" viewBox="0 0 103 49" version="1.1" xmlns="http://www.w3.org/2000/svg" xmlns:xlink="http://www.w3.org/1999/xlink">
    <!-- Generator: Sketch 47.1 (45422) - http://www.bohemiancoding.com/sketch -->
    <title>iconfont_mail_qq</title>
    <desc>Created with Sketch.</desc>
    <defs></defs>
    <g id="弱化调整" stroke="none" stroke-width="1" fill="none" fill-rule="evenodd">
        <g id="Artboard" transform="translate(-296.000000, -357.000000)">
            <g id="mail_qq-copy" transform="translate(296.000000, 364.000000)" fill="#000000">
                <path d="M21,17 L33,3 L43,3 L43,7.224 C41.108,10.377 40,14.055 40,18 C40,21.945 41.108,25.623 43,28.776 L43,33 L35,33 L35,11 L21,27 L7,11 L7,33 L0,33 L0,3 L9,3 L21,17 Z M85.5,-2.13587828e-17 C87.985,-2.13587828e-17 90,2.015 90,4.5 C90,6.985 87.985,9 85.5,9 C83.015,9 81,6.985 81,4.5 C81,2.015 83.015,-2.13587828e-17 85.5,-2.13587828e-17 Z M82,32.9996 L82,10.9996 L89,10.9996 L89,32.9996 L82,32.9996 Z M96,32.9996 L96,-0.0004 L103,-0.0004 L103,32.9996 L96,32.9996 Z" id="Combined-Shape"></path>
                <path d="M50,15 C50,9 56,3 61,2 C61,2 52,1 47,8 C42.314,14.561 43,24 47,24 C51,24 50,21 50,15" id="Fill-8"></path>
                <path d="M63.7681,28.5801 C58.7451,31.8621 50.4401,30.1211 46.8691,26.4821 C46.8691,26.4821 50.9541,34.5631 59.5491,34.9201 C67.6041,35.2551 75.1311,29.5171 72.9431,26.1691 C70.7561,22.8201 68.7911,25.2981 63.7681,28.5801" id="Fill-9"></path>
                <path d="M62.3657,4.0835 C60.5697,7.6575 63.6987,8.1115 69.0597,10.8065 C74.4197,13.5005 77.0857,21.5565 75.7337,26.4735 C75.7337,26.4735 80.6697,18.8805 76.6607,11.2695 C72.9047,4.1365 64.1617,0.5095 62.3657,4.0835" id="Fill-10"></path>
                <polygon id="Fill-11" points="60.7422 11.0366 60.5672 11.0616 60.3892 11.0926 60.2132 11.1266 60.0472 11.1686 59.8802 11.2246 59.7252 11.2806 59.5702 11.3336 59.4152 11.4126 59.2682 11.4766 59.1382 11.5536 59.0022 11.6396 58.8772 11.7296 58.7542 11.8316 58.6532 11.9256 58.4932 12.0816 58.3612 12.2256 58.2352 12.3656 58.1182 12.5086 58.0102 12.6546 57.9142 12.7966 57.8212 12.9386 57.7782 13.0016 57.7382 13.0786 57.6512 13.2136 57.5832 13.3486 57.5212 13.4746 57.4682 13.6096 57.4162 13.7316 57.3722 13.8476 57.3322 13.9706 57.2922 14.0836 57.2382 14.2886 57.1992 14.4876 57.1772 14.6526 57.1552 14.7946 57.1552 14.9046 57.1552 14.9926 57.1552 15.0716 57.1172 15.1136 57.0822 15.1716 57.0552 15.2236 57.0322 15.2786 57.0032 15.3996 56.9712 15.5116 56.9602 15.6116 56.9522 15.6846 56.9522 15.7626 56.8782 15.8746 56.8252 15.9866 56.7862 16.0936 56.7572 16.1896 56.7342 16.2816 56.7122 16.3686 56.7122 16.4416 56.7122 16.5216 56.7122 16.5896 56.7242 16.6426 56.7422 16.7416 56.7652 16.8156 56.7242 16.8486 56.6082 16.9386 56.4542 17.0846 56.3602 17.1706 56.2682 17.2556 56.2042 17.3236 56.1522 17.3826 56.0402 17.5076 55.9332 17.6326 55.8492 17.7406 55.7502 17.8956 55.6542 18.0366 55.5602 18.1916 55.4802 18.3356 55.4142 18.4896 55.3452 18.6316 55.2942 18.7716 55.2402 18.9176 55.1992 19.0596 55.1602 19.2056 55.1252 19.3326 55.1052 19.4696 55.0842 19.5966 55.0652 19.7196 55.0552 19.9586 55.0552 20.1826 55.0552 20.2816 55.0652 20.3796 55.0952 20.5476 55.1052 20.6196 55.1252 20.6946 55.1492 20.7656 55.1712 20.8166 55.2062 20.9086 55.2342 20.9276 55.2512 20.9666 55.2722 20.9756 55.2842 20.9756 55.2942 20.9756 55.3862 20.9666 55.4802 20.9406 55.5602 20.9086 55.6432 20.8526 55.7192 20.8006 55.7882 20.7336 55.8622 20.6626 55.9262 20.5896 55.9852 20.5066 56.0402 20.4326 56.0912 20.3706 56.1222 20.2996 56.1852 20.1826 56.2042 20.1346 56.2152 20.1056 56.2212 20.0726 56.2352 20.0456 56.2462 20.0396 56.2682 20.0286 56.2812 20.0286 56.2862 20.0396 56.2972 20.0396 56.3072 20.0456 56.3432 20.2046 56.3802 20.3336 56.4312 20.4686 56.4822 20.5896 56.5252 20.7106 56.5912 20.8166 56.6392 20.9276 56.6932 21.0296 56.7572 21.1176 56.8042 21.2026 56.9302 21.3596 57.0412 21.5006 57.1472 21.6096 57.2532 21.7076 57.3442 21.7846 57.4792 21.9096 57.5342 21.9366 57.5522 21.9636 57.5522 21.9766 57.5392 21.9886 57.5342 21.9886 57.5072 21.9976 57.4052 22.0056 57.3102 22.0186 57.2312 22.0306 57.1472 22.0496 57.0752 22.0726 57.0032 22.0956 56.9402 22.1306 56.8892 22.1626 56.8252 22.1836 56.7862 22.2186 56.7422 22.2456 56.6972 22.2846 56.6392 22.3586 56.6172 22.3936 56.5912 22.4246 56.5542 22.5026 56.5342 22.5686 56.5102 22.6336 56.5052 22.6916 56.5052 22.7666 56.5052 22.7986 56.4942 22.8526 56.4942 22.9066 56.4822 22.9606 56.4822 23.0086 56.4942 23.0606 56.5052 23.1066 56.5342 23.1966 56.5542 23.2386 56.5792 23.2816 56.6082 23.3236 56.6392 23.3606 56.6802 23.4026 56.7122 23.4366 56.8042 23.5076 56.8962 23.5676 57.0032 23.6216 57.1172 23.6696 57.2382 23.7216 57.3722 23.7536 57.5072 23.7996 57.6512 23.8306 57.7962 23.8536 57.9442 23.8766 58.0982 23.8996 58.4022 23.9326 58.7142 23.9386 59.0022 23.9386 59.1382 23.9386 59.2682 23.9386 59.4042 23.9326 59.5202 23.9186 59.6322 23.9096 59.7372 23.8996 59.9062 23.8656 60.0272 23.8306 60.1432 23.7996 60.3562 23.7076 60.4522 23.6696 60.5452 23.6216 60.6972 23.5336 60.8342 23.4616 60.9362 23.3946 61.0102 23.3236 61.1262 23.3366 61.2162 23.3466 61.3942 23.3606 61.4772 23.3606 61.5482 23.3606 61.6022 23.3716 61.6572 23.3946 61.7442 23.4276 61.8412 23.4616 62.0262 23.5216 62.2152 23.5926 62.3992 23.6486 62.5842 23.6866 62.7732 23.7366 62.9702 23.7656 63.1562 23.7866 63.3422 23.8136 63.5162 23.8306 63.7032 23.8426 63.8822 23.8426 64.0562 23.8426 64.2212 23.8426 64.3882 23.8216 64.5512 23.8136 64.7082 23.7866 64.8532 23.7536 64.9972 23.7216 65.1372 23.6866 65.1942 23.6696 65.2592 23.6486 65.3802 23.5986 65.4872 23.5466 65.5872 23.4936 65.6812 23.4366 65.7652 23.3716 65.7982 23.3366 65.8382 23.2886 65.8882 23.2256 65.9432 23.1466 65.9632 23.1066 65.9722 23.0736 65.9952 23.0316 66.0042 22.9856 66.0042 22.9406 66.0152 22.8966 66.0042 22.8316 65.9952 22.7766 65.9722 22.7106 65.9542 22.6576 65.9192 22.5916 65.8782 22.5316 65.8382 22.4796 65.7842 22.4356 65.6732 22.3356 65.5482 22.2396 65.4232 22.1626 65.2912 22.0846 64.9882 21.9306 64.9162 21.8846 64.8962 21.8636 64.8842 21.8496 65.0292 21.6986 65.0922 21.6226 65.1442 21.5546 65.2462 21.4016 65.3422 21.2466 65.4232 21.1086 65.4992 20.9756 65.6022 20.7106 65.6812 20.4896 65.7352 20.3336 65.7652 20.2816 65.7842 20.2396 65.8152 20.2146 65.8282 20.2146 65.8382 20.2206 65.9152 20.3796 65.9852 20.5336 66.0342 20.6196 66.0842 20.6946 66.1342 20.7876 66.1982 20.8776 66.2522 20.9406 66.2852 20.9756 66.3172 21.0066 66.3462 21.0296 66.3752 21.0506 66.4372 21.0826 66.4702 21.0946 66.4912 21.0946 66.5202 21.0946 66.5532 21.0826 66.5932 21.0616 66.6382 21.0406 66.6762 21.0066 66.7102 20.9666 66.7502 20.9166 66.7812 20.8776 66.8162 20.8166 66.8422 20.7656 66.8732 20.6946 66.8902 20.6356 66.9352 20.4896 66.9642 20.3286 66.9852 20.1496 67.0002 20.0456 67.0002 19.9586 67.0002 19.8666 67.0002 19.7536 66.9782 19.5456 66.9462 19.3116 66.9062 19.0826 66.8732 18.9656 66.8422 18.8406 66.8012 18.7216 66.7592 18.5896 66.7102 18.4646 66.6582 18.3356 66.5642 18.1266 66.4802 17.9416 66.3972 17.7766 66.3252 17.6226 66.2422 17.4826 66.1802 17.3536 66.0512 17.1616 65.8882 16.9066 65.8502 16.8426 65.8382 16.8156 65.8382 16.7946 65.8652 16.7076 65.9032 16.6316 65.9352 16.4796 65.9542 16.4016 65.9542 16.3206 65.9632 16.2546 65.9632 16.1896 65.9542 16.1146 65.9432 16.0526 65.9192 15.9286 65.8882 15.8076 65.8592 15.6956 65.8152 15.5876 65.7652 15.4976 65.7262 15.4126 65.6812 15.3326 65.6132 15.2136 65.5872 15.1716 65.5802 15.1346 65.5482 14.9046 65.5282 14.7526 65.5052 14.5636 65.4692 14.3696 65.4112 14.1466 65.3802 14.0226 65.3542 13.9166 65.3182 13.7936 65.2782 13.6626 65.2382 13.5416 65.1872 13.4116 65.0832 13.1596 65.0212 13.0406 64.9472 12.9046 64.8772 12.7866 64.8072 12.6546 64.7082 12.5316 64.6252 12.4116 64.5232 12.2886 64.4202 12.1776 64.3152 12.0706 64.1912 11.9586 64.1262 11.9176 64.0652 11.8626 63.9312 11.7646 63.7772 11.6586 63.6192 11.5626 63.4572 11.4766 63.2792 11.3976 63.1122 11.3226 62.9382 11.2576 62.7482 11.2036 62.5752 11.1556 62.3892 11.1136 62.2152 11.0696 62.0262 11.0476 61.8412 11.0246 61.6572 10.9996 61.4672 10.9996 61.2822 10.9996 61.1042 10.9996 60.9182 11.0116"></polygon>
            </g>
            <rect id="Rectangle-23-Copy-4" opacity="0.400000006" x="296" y="357" width="103" height="49"></rect>
        </g>
    </g>
</svg>