<?xml version="1.0" encoding="UTF-8"?>
<svg width="103px" height="49px" viewBox="0 0 103 49" version="1.1" xmlns="http://www.w3.org/2000/svg" xmlns:xlink="http://www.w3.org/1999/xlink">
    <!-- Generator: Sketch 47.1 (45422) - http://www.bohemiancoding.com/sketch -->
    <title>iconfont_mail_126</title>
    <desc>Created with Sketch.</desc>
    <defs></defs>
    <g id="弱化调整" stroke="none" stroke-width="1" fill="none" fill-rule="evenodd">
        <g id="Artboard" transform="translate(-83.000000, -357.000000)">
            <path d="M102.838387,395.1453 L102.838387,378.802157 C102.303018,378.932381 101.416779,379.09516 100.179642,379.290497 C98.9425056,379.485835 98.0707353,379.590737 97.5643051,379.605206 L97,375.611662 C98.736332,375.293335 100.588392,374.671159 102.556235,373.745115 C104.524078,372.819071 106.057815,371.885807 107.157492,370.945293 L107.179196,370.945293 L111.888973,371.509598 L111.888973,395.123596 L116.316597,395.687901 L116.316597,398.943507 L97.9766819,398.943507 L97.9766819,395.687901 L102.838387,395.1453 Z M118.161441,395.774717 C122.169474,393.257036 125.298442,390.764713 127.548439,388.297675 C129.798436,385.830636 130.923417,383.280437 130.923417,380.647 C130.923417,379.446037 130.529131,378.494686 129.740547,377.792919 C128.951963,377.091151 127.884858,376.740273 126.539201,376.740273 C125.714443,376.740273 124.969279,376.845174 124.303685,377.054981 C123.638091,377.264788 123.073791,377.510765 122.610769,377.792919 C122.147748,378.075073 121.63409,378.433186 121.069782,378.867269 L120.570589,379.236237 L118.508705,376.197672 C119.044075,375.45973 119.90861,374.68201 121.102338,373.864487 C122.296067,373.046964 123.670642,372.359676 125.226106,371.802603 C126.781571,371.24553 128.333394,370.966997 129.881623,370.966997 C132.182263,370.966997 134.113904,371.328728 135.676603,372.0522 C137.239301,372.775671 138.396839,373.748726 139.149249,374.971393 C139.90166,376.19406 140.277859,377.543315 140.277859,379.019197 C140.277859,381.710512 138.982865,384.336674 136.392836,386.897764 C133.802807,389.458854 130.373603,391.918621 126.10512,394.277138 L137.586558,393.170232 L139.47481,389.740994 L142.947457,390.435523 L141.688622,398.943507 L119.398571,398.943507 L118.161441,395.774717 Z M146.875888,385.118033 C146.875888,381.211286 147.863412,377.684414 149.83849,374.537312 C151.813568,371.390211 154.295038,368.901505 157.282976,367.071122 C160.270914,365.240739 163.219017,364.217042 166.127373,364 L167.798585,367.038566 C165.020453,367.805446 162.723465,369.180021 160.907551,371.162334 C159.091637,373.144646 157.764087,375.546536 156.92486,378.368076 C158.516497,377.210521 160.527718,376.631752 162.958583,376.631752 C164.767262,376.631752 166.387815,377.03689 167.820289,377.847179 C169.252763,378.657467 170.374127,379.829474 171.184415,381.363233 C171.994703,382.896993 172.399841,384.71288 172.399841,386.810948 C172.399841,389.06818 171.900653,391.166216 170.902263,393.10512 C169.903872,395.044024 168.438863,396.595848 166.507194,397.760637 C164.575525,398.925427 162.264067,399.507812 159.572753,399.507812 C156.939316,399.507812 154.664031,398.892871 152.746832,397.662969 C150.829632,396.433067 149.371858,394.729317 148.373467,392.551667 C147.375076,390.374017 146.875888,387.896164 146.875888,385.118033 Z M156.12181,382.101171 C155.962646,383.316603 155.883066,384.67671 155.883066,386.181531 C155.883066,392.866409 157.17806,396.208798 159.768089,396.208798 C160.983522,396.208798 161.924021,395.499807 162.589615,394.081802 C163.255208,392.663798 163.588,390.746626 163.588,388.330231 C163.588,383.338276 162.264067,380.842336 159.616161,380.842336 C158.950567,380.842336 158.306687,380.961708 157.684501,381.200453 C157.062315,381.439199 156.541424,381.739435 156.12181,382.101171 Z" id="iconfont_mail_126" fill="#000000"></path>
            <rect id="Rectangle-23-Copy-2" opacity="0.400000006" x="83" y="357" width="103" height="49"></rect>
        </g>
    </g>
</svg>