<?xml version="1.0" encoding="UTF-8"?>
<svg width="103px" height="49px" viewBox="0 0 103 49" version="1.1" xmlns="http://www.w3.org/2000/svg" xmlns:xlink="http://www.w3.org/1999/xlink">
    <!-- Generator: Sketch 47.1 (45422) - http://www.bohemiancoding.com/sketch -->
    <title>iconfont_mail_163</title>
    <desc>Created with Sketch.</desc>
    <defs></defs>
    <g id="弱化调整" stroke="none" stroke-width="1" fill="none" fill-rule="evenodd">
        <g id="Artboard" transform="translate(-189.000000, -357.000000)">
            <path d="M210.608687,390.919949 L210.608687,375.219795 C210.094381,375.344896 209.243009,375.501271 208.054545,375.688923 C206.866081,375.876575 206.028609,375.97735 205.542104,375.99125 L205,372.154824 C206.668019,371.849021 208.447213,371.251323 210.337636,370.361712 C212.228058,369.472102 213.701453,368.575555 214.757865,367.672044 L214.778715,367.672044 L219.303195,368.214148 L219.303195,390.899099 L223.556623,391.441203 L223.556623,394.568723 L205.938256,394.568723 L205.938256,391.441203 L210.608687,390.919949 Z M226.704994,381.287185 C226.704994,377.534141 227.653666,374.146028 229.551038,371.122742 C231.44841,368.099457 233.832253,365.708665 236.702636,363.950295 C239.573019,362.191924 242.405135,361.208502 245.199068,361 L246.804528,363.919019 C244.135697,364.655728 241.929079,365.976224 240.184609,367.880546 C238.440139,369.784868 237.164818,372.09226 236.358609,374.802792 C237.887626,373.690779 239.81972,373.134781 242.154947,373.134781 C243.892467,373.134781 245.449262,373.523979 246.825378,374.302389 C248.201494,375.080798 249.278741,376.206694 250.05715,377.680111 C250.835559,379.153528 251.224758,380.897972 251.224758,382.913496 C251.224758,385.081921 250.745209,387.097414 249.786098,388.960036 C248.826987,390.822658 247.419617,392.313428 245.563945,393.432391 C243.708273,394.551354 241.487756,395.110827 238.902326,395.110827 C236.372496,395.110827 234.186728,394.520079 232.344957,393.338565 C230.503186,392.157051 229.102765,390.520332 228.143654,388.428358 C227.184543,386.336383 226.704994,383.956016 226.704994,381.287185 Z M235.587154,378.389016 C235.434252,379.556629 235.357802,380.863225 235.357802,382.308842 C235.357802,388.730717 236.601848,391.941606 239.089977,391.941606 C240.25759,391.941606 241.161087,391.260508 241.800495,389.898292 C242.439902,388.536076 242.759601,386.694333 242.759601,384.373006 C242.759601,379.57745 241.487756,377.179708 238.944026,377.179708 C238.304618,377.179708 237.68607,377.294382 237.088364,377.523735 C236.490657,377.753088 235.990258,378.041512 235.587154,378.389016 Z M259.314611,397.02904 C260.954831,397.02904 262.379576,396.751041 263.58889,396.195034 C264.798204,395.639028 265.722551,394.88148 266.361958,393.922369 C267.001366,392.963258 267.321065,391.879062 267.321065,390.669747 C267.321065,387.361509 265.541871,385.596215 261.983429,385.373812 L259.606513,385.936766 L258.501456,382.809245 C259.474467,382.698044 260.642063,382.336645 262.004279,381.725038 C263.491597,381.01613 264.572318,380.185607 265.246476,379.233446 C265.920634,378.281285 266.257708,377.270064 266.257708,376.199751 C266.257708,375.059938 265.885884,374.208566 265.142225,373.645609 C264.398567,373.082653 263.477695,372.801179 262.379582,372.801179 C260.197256,372.801179 258.265163,373.461426 256.583243,374.781942 L254.64418,371.299969 C255.158486,370.799563 255.971634,370.267889 257.083647,369.704933 C258.19566,369.141976 259.467505,368.665903 260.899222,368.276698 C262.330939,367.887494 263.741784,367.692895 265.1318,367.692895 C267.050022,367.692895 268.745817,367.946569 270.219234,368.453925 C271.692651,368.961281 272.849822,369.746628 273.690782,370.80999 C274.531742,371.873353 274.952215,373.197323 274.952215,374.781942 C274.952215,376.908666 274.163393,378.70176 272.585725,380.161278 C271.008056,381.620795 268.975188,382.781441 266.487059,383.643251 C266.973565,383.60155 267.446163,383.5807 267.904869,383.5807 C269.558988,383.5807 271.046283,383.851749 272.366798,384.393856 C273.687314,384.935962 274.72981,385.738684 275.494319,386.802047 C276.258828,387.865409 276.641077,389.15463 276.641077,390.669747 C276.641077,392.657471 276.029479,394.464465 274.806265,396.090784 C273.58305,397.717102 271.810806,399.006323 269.489479,399.958484 C267.168152,400.910645 264.436811,401.386719 261.295375,401.386719 C260.183362,401.386719 258.991441,401.292894 257.719576,401.105242 C256.447711,400.91759 255.478189,400.698665 254.810981,400.448463 L254.810981,396.340985 C255.50599,396.577288 256.194037,396.751037 256.875145,396.862239 C257.556253,396.97344 258.3694,397.02904 259.314611,397.02904 Z" id="mail_163-copy" fill="#000000"></path>
            <rect id="Rectangle-23-Copy-3" opacity="0.400000006" x="189" y="357" width="103" height="49"></rect>
        </g>
    </g>
</svg>