<?xml version="1.0" encoding="UTF-8"?>
<svg width="103px" height="49px" viewBox="0 0 103 49" version="1.1" xmlns="http://www.w3.org/2000/svg" xmlns:xlink="http://www.w3.org/1999/xlink">
    <!-- Generator: Sketch 47.1 (45422) - http://www.bohemiancoding.com/sketch -->
    <title>iconfont_mail_outlook</title>
    <desc>Created with Sketch.</desc>
    <defs></defs>
    <g id="弱化调整" stroke="none" stroke-width="1" fill="none" fill-rule="evenodd">
        <g id="Artboard" transform="translate(-403.000000, -357.000000)">
            <path d="M477,371.713695 L477,370 L459.40999,370 L459.286445,376.629383 L465.622863,382.863578 L477,371.713695 Z M477,374.213241 L466.256776,384.741873 C465.905105,385.086519 465.336201,385.085972 464.985216,384.740649 L459.240613,379.088722 L459,392 L477,392 L477,374.213241 Z M459,368 L479,368 L479,395 L459,395 L459,405 L431,400.17649 L431,362.518114 L459,358 L459,368 Z M443.892513,372 C438.997743,372 437,377.332624 437,381.555653 C437,385.778681 439.22924,391 444.839421,391 C450.449601,391 452,385.424717 452,380.588991 C452,375.753266 448.787282,372 443.892513,372 Z M444.901907,375 C447.509835,375 449,377.931346 449,381 C449,384.068654 447.473223,387 445.15449,387 C442.835756,387 441,384.226039 441,381.020753 C441,377.815467 442.293979,375 444.901907,375 Z" id="mail_outlook-copy" fill="#000000"></path>
            <rect id="Rectangle-23-Copy-5" opacity="0.400000006" x="403" y="357" width="103" height="49"></rect>
        </g>
    </g>
</svg>