<?xml version="1.0" encoding="UTF-8"?>
<svg width="20px" height="20px" viewBox="0 0 20 20" version="1.1" xmlns="http://www.w3.org/2000/svg" xmlns:xlink="http://www.w3.org/1999/xlink">
    <!-- Generator: Sketch 47.1 (45422) - http://www.bohemiancoding.com/sketch -->
    <title>iconfont_police</title>
    <desc>Created with Sketch.</desc>
    <defs></defs>
    <g id="弱化调整" stroke="none" stroke-width="1" fill="none" fill-rule="evenodd">
        <g id="Artboard" transform="translate(-197.000000, -143.000000)">
            <g id="Group-7" transform="translate(197.000000, 143.000000)">
                <path d="M0.89524688,7.87209501 C1.01116243,6.74470405 4.66549571,5.84922734 7.14761846,4.08596392 C9.62974121,2.32270051 10.1025503,2.47819698 12.5144086,4.08596392 C14.9262669,5.69373087 18.9144602,7.15032532 18.9967819,7.87209501 C19.0791035,8.59386471 17.5564854,9.64142861 17.3599113,10.2787978 C17.1633372,10.916167 15.9405695,11.769984 10.3117637,11.769984 C4.68295788,11.769984 2.75064403,11.2037108 2.57776855,10.2787978 C2.40489306,9.35388488 0.779331332,8.99948598 0.89524688,7.87209501 Z M2.81749919,12.6367729 C5.22262209,13.1080851 9.28253506,13.4238178 9.98584475,13.4238178 C10.6891544,13.4238178 12.779002,13.667623 17.1541903,12.6367729 C15.2410848,15.9923367 12.5760251,17.4555834 9.92975792,17.4555834 C7.28349077,17.4555834 4.36789044,15.8933844 2.81749919,12.6367729 Z M9.96667794,6.5296699 C9.44763572,6.5296699 8.82653682,6.84892272 8.10338124,7.48742835 C8.38199986,9.31119957 9.00309876,10.2230852 9.96667794,10.2230852 C10.9302571,10.2230852 11.544094,9.31119957 11.8081885,7.48742835 C11.099557,6.84892272 10.4857202,6.5296699 9.96667794,6.5296699 Z" id="Combined-Shape" fill="#000000"></path>
                <rect id="Rectangle-19-Copy-9" opacity="0.400000006" x="0" y="0" width="20" height="20"></rect>
            </g>
        </g>
    </g>
</svg>