<?xml version="1.0" encoding="UTF-8"?>
<svg width="20px" height="20px" viewBox="0 0 20 20" version="1.1" xmlns="http://www.w3.org/2000/svg" xmlns:xlink="http://www.w3.org/1999/xlink">
    <!-- Generator: Sketch 47.1 (45422) - http://www.bohemiancoding.com/sketch -->
    <title>iconfont_company</title>
    <desc>Created with Sketch.</desc>
    <defs></defs>
    <g id="弱化调整" stroke="none" stroke-width="1" fill="none" fill-rule="evenodd">
        <g id="Artboard" transform="translate(-115.000000, -143.000000)">
            <g id="Group-9" transform="translate(115.000000, 143.000000)">
                <path d="M5.28545908,1.28461538 L5.28545908,0 L12.9982136,0 L12.9982136,1.28461538 L15.5691317,1.28461538 L15.5691317,19.2692308 L4,19.2692308 L4,1.28461538 L5.28545908,1.28461538 Z M6.57091817,3.85384615 L6.57091817,5.13846154 L7.85637725,5.13846154 L7.85637725,3.85384615 L6.57091817,3.85384615 Z M7.85637725,3.85384615 L7.85637725,5.13846154 L9.14183633,5.13846154 L9.14183633,3.85384615 L7.85637725,3.85384615 Z M10.4272954,3.85384615 L10.4272954,5.13846154 L11.7127545,5.13846154 L11.7127545,3.85384615 L10.4272954,3.85384615 Z M11.7127545,3.85384615 L11.7127545,5.13846154 L12.9982136,5.13846154 L12.9982136,3.85384615 L11.7127545,3.85384615 Z M6.57091817,6.42307692 L6.57091817,7.70769231 L7.85637725,7.70769231 L7.85637725,6.42307692 L6.57091817,6.42307692 Z M7.85637725,6.42307692 L7.85637725,7.70769231 L9.14183633,7.70769231 L9.14183633,6.42307692 L7.85637725,6.42307692 Z M10.4272954,6.42307692 L10.4272954,7.70769231 L11.7127545,7.70769231 L11.7127545,6.42307692 L10.4272954,6.42307692 Z M11.7127545,6.42307692 L11.7127545,7.70769231 L12.9982136,7.70769231 L12.9982136,6.42307692 L11.7127545,6.42307692 Z M6.57091817,8.99230769 L6.57091817,10.2769231 L7.85637725,10.2769231 L7.85637725,8.99230769 L6.57091817,8.99230769 Z M7.85637725,8.99230769 L7.85637725,10.2769231 L9.14183633,10.2769231 L9.14183633,8.99230769 L7.85637725,8.99230769 Z M10.4272954,8.99230769 L10.4272954,10.2769231 L11.7127545,10.2769231 L11.7127545,8.99230769 L10.4272954,8.99230769 Z M11.7127545,8.99230769 L11.7127545,10.2769231 L12.9982136,10.2769231 L12.9982136,8.99230769 L11.7127545,8.99230769 Z M6.57091817,11.5615385 L6.57091817,12.8461538 L7.85637725,12.8461538 L7.85637725,11.5615385 L6.57091817,11.5615385 Z M7.85637725,11.5615385 L7.85637725,12.8461538 L9.14183633,12.8461538 L9.14183633,11.5615385 L7.85637725,11.5615385 Z M10.4272954,11.5615385 L10.4272954,12.8461538 L11.7127545,12.8461538 L11.7127545,11.5615385 L10.4272954,11.5615385 Z M11.7127545,11.5615385 L11.7127545,12.8461538 L12.9982136,12.8461538 L12.9982136,11.5615385 L11.7127545,11.5615385 Z M6.57091817,14.1307692 L6.57091817,15.4153846 L7.85637725,15.4153846 L7.85637725,14.1307692 L6.57091817,14.1307692 Z M7.85637725,14.1307692 L7.85637725,15.4153846 L9.14183633,15.4153846 L9.14183633,14.1307692 L7.85637725,14.1307692 Z M10.4272954,14.1307692 L10.4272954,15.4153846 L11.7127545,15.4153846 L11.7127545,14.1307692 L10.4272954,14.1307692 Z M11.7127545,14.1307692 L11.7127545,15.4153846 L12.9982136,15.4153846 L12.9982136,14.1307692 L11.7127545,14.1307692 Z M7.85637725,16.7 L7.85637725,19.2692308 L10.4272954,19.2692308 L10.4272954,16.7 L7.85637725,16.7 Z" id="Combined-Shape-Copy-15" fill="#000000"></path>
                <rect id="Rectangle-19-Copy-7" opacity="0.400000006" x="0" y="0" width="20" height="20"></rect>
            </g>
        </g>
    </g>
</svg>