<?xml version="1.0" standalone="no"?><!DOCTYPE svg PUBLIC "-//W3C//DTD SVG 1.1//EN" "http://www.w3.org/Graphics/SVG/1.1/DTD/svg11.dtd"><svg t="1514434437014" class="icon" style="" viewBox="0 0 1024 1024" version="1.1" xmlns="http://www.w3.org/2000/svg" p-id="2838" xmlns:xlink="http://www.w3.org/1999/xlink" width="200" height="200"><defs><style type="text/css"></style></defs><path d="M512 887.4c85.8-26.8 314.4-125.6 314.4-353.3v-14.7H512v368z" fill="#d81e06" p-id="2839"></path><path d="M512 63c-136.7 98-393 98-393 98v375.5c0 293.9 283 395.1 393 424.5 110-29.4 393-130.6 393-424.5V161s-256.3 0-393-98z m345.8 471.1c0 250.3-251.5 353.3-345.8 382.7-94.3-29.4-345.8-132.5-345.8-382.7V210.2s209.1-6.7 345.8-88.3c136.7 81.6 345.8 88.3 345.8 88.3v323.9z" fill="#d81e06" p-id="2840"></path><path d="M197.6 239.7v279.7H512v-368c-124.4 74.2-314.4 88.3-314.4 88.3z" fill="#d81e06" p-id="2841"></path></svg>