<?xml version="1.0" encoding="UTF-8"?>
<svg width="20px" height="20px" viewBox="0 0 20 20" version="1.1" xmlns="http://www.w3.org/2000/svg" xmlns:xlink="http://www.w3.org/1999/xlink">
    <!-- Generator: Sketch 47.1 (45422) - http://www.bohemiancoding.com/sketch -->
    <title>iconfont_man</title>
    <desc>Created with Sketch.</desc>
    <defs></defs>
    <g id="弱化调整" stroke="none" stroke-width="1" fill="none" fill-rule="evenodd">
        <g id="Artboard" transform="translate(-272.000000, -112.000000)" fill="#ffd858">
            <g id="Group-6" transform="translate(272.000000, 112.000000)">
                <path d="M6.64691775,12.6746271 L3.28183444,18.4684895 C2.99117161,18.9689408 2.34623069,19.1397245 1.84360757,18.8512592 C1.33995963,18.5622058 1.16835033,17.9203791 1.4579639,17.4217343 L6.64691775,8.33236907 C6.64691775,8.01799511 6.90254397,7.76314466 7.22164475,7.76314466 L13.0229945,7.76314466 C13.3404074,7.76314466 13.5977215,8.01784615 13.5977215,8.33236907 L18.8590776,17.3911608 C19.1497404,17.8916122 18.976057,18.5322204 18.4734339,18.8206857 C17.969786,19.1097392 17.3248206,18.9365608 17.0352071,18.437916 L13.5977215,12.5193943 L13.5977215,19.9215584 L6.64691775,19.9215584 L6.64691775,12.6746271 Z M10.1223196,6.77449505 C8.4771098,6.77449505 7.14340373,5.44659453 7.14340373,3.80854623 C7.14340373,2.17049792 8.4771098,0.842597403 10.1223196,0.842597403 C11.7675294,0.842597403 13.1012355,2.17049792 13.1012355,3.80854623 C13.1012355,5.44659453 11.7675294,6.77449505 10.1223196,6.77449505 Z" id="man"></path>
            </g>
        </g>
    </g>
</svg>
