<?xml version="1.0" encoding="UTF-8"?>
<svg width="20px" height="20px" viewBox="0 0 20 20" version="1.1" xmlns="http://www.w3.org/2000/svg" xmlns:xlink="http://www.w3.org/1999/xlink">
    <!-- Generator: Sketch 47.1 (45422) - http://www.bohemiancoding.com/sketch -->
    <title>iconfont_disk</title>
    <desc>Created with Sketch.</desc>
    <defs></defs>
    <g id="弱化调整" stroke="none" stroke-width="1" fill="none" fill-rule="evenodd">
        <g id="Artboard" transform="translate(-81.000000, -112.000000)" fill="#fa4b4a">
            <g id="Group" transform="translate(81.000000, 112.000000)">
                <path d="M2.02750873,14.0076413 L18,14.0076413 C18.5522847,14.0076413 19,14.4553566 19,15.0076413 L19,18 C19,18.5522847 18.5522847,19 18,19 L2.02750873,19 C1.47522398,19 1.02750873,18.5522847 1.02750873,18 L1.02750873,15.0076413 C1.02750873,14.4553566 1.47522398,14.0076413 2.02750873,14.0076413 L2.02750873,14.0076413 Z M15.0061131,15.0061131 L15.0061131,16.0045848 L16.0045848,16.0045848 L16.0045848,15.0061131 L15.0061131,15.0061131 Z M4.75019239,1.02750873 L15.2770411,1.02750873 L15.2770411,1.02750873 C15.7311999,1.02750873 16.1283278,1.33355537 16.2440395,1.77272627 L19.0083976,12.2645388 C19.14911,12.7985973 18.8302401,13.3456072 18.2961816,13.4863197 C18.2130264,13.5082292 18.1273924,13.5193213 18.0413992,13.5193213 L1.98583428,13.5193213 L1.98583428,13.5193213 C1.43354953,13.5193213 0.985834282,13.071606 0.985834282,12.5193213 C0.985834282,12.4333281 0.996926333,12.3476941 1.01883589,12.2645388 L3.78319399,1.77272627 L3.78319399,1.77272627 C3.89890571,1.33355537 4.29603352,1.02750873 4.75019239,1.02750873 Z M10.0916705,9.95418991 C13.3469273,9.95418991 15.9858343,8.65498113 15.9858343,7.05232589 C15.9858343,5.44967064 13.3469273,4.15046187 10.0916705,4.15046187 C6.8364137,4.15046187 4.19750668,5.44967064 4.19750668,7.05232589 C4.19750668,8.65498113 6.8364137,9.95418991 10.0916705,9.95418991 Z M10.0137544,7.273415 C9.13793676,7.273415 8.42794631,7.04038271 8.42794631,6.75292281 C8.42794631,6.46546292 9.13793676,6.23243062 10.0137544,6.23243062 C10.889572,6.23243062 11.5995624,6.46546292 11.5995624,6.75292281 C11.5995624,7.04038271 10.889572,7.273415 10.0137544,7.273415 Z" id="disk"></path>
            </g>
        </g>
    </g>
</svg>
