<?xml version="1.0" encoding="UTF-8"?>
<svg width="20px" height="20px" viewBox="0 0 20 20" version="1.1" xmlns="http://www.w3.org/2000/svg" xmlns:xlink="http://www.w3.org/1999/xlink">
    <!-- Generator: Sketch 47.1 (45422) - http://www.bohemiancoding.com/sketch -->
    <title>iconfont_browser</title>
    <desc>Created with Sketch.</desc>
    <defs></defs>
    <g id="弱化调整" stroke="none" stroke-width="1" fill="none" fill-rule="evenodd">
        <g id="Artboard" transform="translate(-116.000000, -112.000000)" fill="#86d477">
            <g id="Group-2" transform="translate(116.000000, 112.000000)">
                <path d="M16.6202622,0.976046786 C14.6599799,0.976046786 12.3897336,2.56706763 12.3897336,2.56706763 C12.3897336,2.56706763 18.8138963,3.61487483 18.3046927,10.9101929 L7.68906627,10.9101929 C7.68906627,10.9101929 7.53240666,13.7429919 10.2743893,13.7429919 C12.272139,13.7429919 12.6639079,11.9580001 12.6639079,11.9580001 L18.2263229,11.9580001 C18.2263229,11.9580001 16.7377769,17.4294688 10.4702738,17.4294688 C8.98172781,17.4294688 8.43337921,17.3131338 8.43337921,17.3131338 C8.43337921,17.3131338 5.88712117,19.3136225 3.38016785,19.3136225 C0.873134642,19.3136225 0.638025384,16.6144901 0.990649328,15.4115695 C1.34319338,14.2086488 2.75336961,8.30800644 8.70755351,4.2745027 L8.70755351,4.00289588 C8.70755351,4.00289588 4.67282939,5.67147345 1.77410719,9.78482896 C1.77410719,9.78482896 1.65659251,5.78788767 5.22125788,3.53715982 C8.4920966,1.57758625 11.7629353,2.4506534 11.7629353,2.4506534 C11.7629353,2.4506534 14.5049979,0.471532368 16.698632,0.471532368 C16.698632,0.471532368 20.1176622,0.155053441 18.3574185,4.6798553 L18.2581182,4.58156402 C18.2581182,4.58156402 19.7272515,0.976046786 16.6202622,0.976046786 Z M10.2624452,5.98055205 C7.64636781,5.98055205 7.70948652,8.46112182 7.70948652,8.46112182 L12.6894029,8.46112182 C12.6894029,8.46112182 12.7888483,5.98055205 10.2624452,5.98055205 Z M3.14687248,14.1974394 C3.14687248,14.1974394 1.6334399,16.4968896 2.56475814,18.1205336 C4.30333747,19.7442582 8.17628212,17.400867 8.17628212,17.400867 C4.4274755,16.5651797 3.14687248,14.1974394 3.14687248,14.1974394 Z" id="browser"></path>
            </g>
        </g>
    </g>
</svg>
