<?xml version="1.0" standalone="no"?><!DOCTYPE svg PUBLIC "-//W3C//DTD SVG 1.1//EN"
  "http://www.w3.org/Graphics/SVG/1.1/DTD/svg11.dtd">
<svg t="1511148199871" class="icon" style="" viewBox="0 0 1024 1024" version="1.1" xmlns="http://www.w3.org/2000/svg"
     p-id="1273" xmlns:xlink="http://www.w3.org/1999/xlink" width="20" height="20">
  <defs>
    <style type="text/css"></style>
  </defs>
  <path d="M575.754919 785.07076h20.134532v3.473094h-20.134532zM664.348499 763.577279h4.982468v16.104761h-4.982468z"
        p-id="1274" fill="#d8d8d8"></path>
  <path
    d="M746.94654 380.14419h-477.054163c-9.637479 0-17.480082 7.839533-17.480081 17.479058v476.976392c0 9.635432 7.840556 17.478035 17.480081 17.478035h477.054163c9.637479 0 17.480082-7.837487 17.480082-17.478035V397.621202c0-9.637479-7.843626-17.477012-17.480082-17.477012z m-46.268697 419.632474c0 17.292817-14.02029 31.315154-31.315154 31.315154s-31.315154-14.018244-31.315153-31.315154V476.656098c0-17.292817 14.02029-31.316177 31.315153-31.316177 17.295887 0 31.318224 14.02029 31.315154 31.316177v323.120566z m46.268697-485.434001h-46.264604V58.959715H316.158005v255.382948h-46.265628c-45.994452 0-83.279562 37.286133-83.279562 83.278539V874.597594c0 45.996498 37.286133 83.280585 83.279562 83.280585h477.054163c45.996498 0 83.279562-37.287157 83.279562-83.280585V397.621202c-0.001023-45.993428-37.287157-83.278539-83.279562-83.278539zM381.957485 124.759196h252.922924v188.871247H381.957485v-188.871247z m382.469137 749.840444c0 9.635432-7.842603 17.478035-17.480082 17.478035h-477.054163c-9.637479 0-17.480082-7.842603-17.480081-17.478035V397.621202c0-9.637479 7.840556-17.479058 17.480081-17.479059h477.054163c9.637479 0 17.480082 7.840556 17.480082 17.479059v476.978438zM445.282616 186.55551h127.997953V251.3235H445.282616v-64.76799z"
    p-id="1275" fill="#d8d8d8"></path>
</svg>
