<?xml version="1.0" encoding="UTF-8"?>
<svg width="20px" height="20px" viewBox="0 0 20 20" version="1.1" xmlns="http://www.w3.org/2000/svg" xmlns:xlink="http://www.w3.org/1999/xlink">
    <!-- Generator: Sketch 47.1 (45422) - http://www.bohemiancoding.com/sketch -->
    <title>iconfont_qq</title>
    <desc>Created with Sketch.</desc>
    <defs></defs>
    <g id="弱化调整" stroke="none" stroke-width="1" fill="none" fill-rule="evenodd">
        <g id="Artboard" transform="translate(-236.000000, -112.000000)">
            <g id="Group-5" transform="translate(236.000000, 112.000000)">
                <polygon id="qq_file" fill="#86d477" points="9.61758058 0.0565500983 9.38317288 0.0947596242 9.14474676 0.142139436 8.90899958 0.194104392 8.68664713 0.258296395 8.46295521 0.343885733 8.25533696 0.429475071 8.04771871 0.510479266 7.84010046 0.631221368 7.64319799 0.729037754 7.46906656 0.846723094 7.28689828 0.978163863 7.11946421 1.11571816 6.95470908 1.27161302 6.81942235 1.41528084 6.60510674 1.65370828 6.42829636 1.87379515 6.25952281 2.08776849 6.10280452 2.30632698 5.95814148 2.52947061 5.82955211 2.74650072 5.70498116 2.96353083 5.64738384 3.05981883 5.59380494 3.17750417 5.47727082 3.38383561 5.38618669 3.59016705 5.30313939 3.78274306 5.23214734 3.9890745 5.16249477 4.17553699 5.10355797 4.35282919 5.04997907 4.54082006 4.99640017 4.71352711 4.92406865 5.02684523 4.87182922 5.33099305 4.84236082 5.58317592 4.81289242 5.80020603 4.81289242 5.96832794 4.81289242 6.10282548 4.81289242 6.22356758 4.76199247 6.28775958 4.71511093 6.37640568 4.67894517 6.4558815 4.6481373 6.53994245 4.60929259 6.72487656 4.56642947 6.89605523 4.55169527 7.04889334 4.54097949 7.16046515 4.54097949 7.27967887 4.44185852 7.45085755 4.37086647 7.62203623 4.31862704 7.785573 4.27978234 7.93229758 4.24897447 8.07290863 4.21950607 8.20587778 4.21950607 8.3174496 4.21950607 8.43972008 4.21950607 8.54364999 4.23557974 8.62465419 4.25969025 8.77596391 4.29049812 8.8890641 4.23557974 8.93950068 4.08020092 9.07705497 3.87392214 9.3001986 3.74801172 9.43163937 3.62478024 9.56155176 3.539054 9.66548167 3.46940142 9.75565615 3.31938049 9.94670378 3.17605693 10.1377514 3.06354123 10.3028166 2.93093344 10.5397156 2.80234408 10.7552173 2.67643365 10.9921164 2.56927585 11.2122033 2.48087066 11.447574 2.38844705 11.6646041 2.32013395 11.8785774 2.24780243 12.101721 2.19288405 12.3187511 2.14064462 12.5418948 2.09376308 12.7359992 2.06697363 12.9453874 2.0388447 13.1394918 2.01339473 13.3274826 2 13.6927657 2 14.0351231 2 14.1864328 2.01339473 14.3362141 2.0535789 14.5929821 2.06697363 14.7030256 2.09376308 14.8176541 2.12591042 14.9261692 2.15537882 15.0041166 2.20226036 15.1447277 2.23976559 15.1737669 2.26253663 15.2333738 2.29066555 15.2471292 2.30673922 15.2471292 2.32013395 15.2471292 2.44336542 15.2333738 2.56927585 15.1936359 2.67643365 15.1447277 2.78760988 15.0591383 2.88940979 14.9796625 2.9818334 14.877261 3.08095437 14.7687459 3.16668062 14.6571741 3.2457095 14.5303185 3.31938049 14.4172183 3.3876936 14.3224587 3.42921725 14.2139436 3.51360402 14.0351231 3.539054 13.9617608 3.5537882 13.9174377 3.56182503 13.8670011 3.58057765 13.8257348 3.59531185 13.8165646 3.62478024 13.7997524 3.64219339 13.7997524 3.64889075 13.8165646 3.66362495 13.8165646 3.67701967 13.8257348 3.72524069 14.0687474 3.77480117 14.2659086 3.84311427 14.47224 3.91142738 14.6571741 3.9690247 14.8421082 4.05742989 15.0041166 4.12172457 15.1737669 4.19405609 15.3296618 4.27978234 15.4641593 4.34273755 15.5940717 4.51151109 15.8340275 4.66019255 16.0495293 4.80217664 16.2161228 4.94416074 16.3659041 5.06605274 16.4835895 5.24688154 16.6746371 5.32055253 16.7159034 5.34466304 16.7571697 5.34466304 16.7770386 5.3272499 16.7953792 5.32055253 16.7953792 5.28438677 16.8091346 5.14776057 16.8213617 5.02051067 16.8412306 4.91469234 16.8595712 4.80217664 16.8886104 4.70573462 16.9237632 4.60929259 16.958916 4.52490582 17.0124093 4.45659272 17.0613175 4.37086647 17.0934135 4.31862704 17.1469068 4.25969025 17.1881731 4.19941398 17.24778 4.12172457 17.3608802 4.09225617 17.4143735 4.05742989 17.4617533 4.0078694 17.5809671 3.98107995 17.6818402 3.94893261 17.781185 3.94223524 17.8698311 3.94223524 17.9844596 3.94223524 18.0333678 3.92750105 18.1159004 3.92750105 18.198433 3.91142738 18.2809656 3.91142738 18.3543279 3.92750105 18.4338037 3.94223524 18.5041092 3.98107995 18.6416635 4.0078694 18.7058555 4.04135622 18.7715759 4.08020092 18.8357679 4.12172457 18.892318 4.17664295 18.95651 4.21950607 19.0084749 4.34273755 19.11699 4.46596902 19.2086929 4.60929259 19.2912254 4.76199247 19.3645877 4.92406865 19.4440635 5.10355797 19.4929717 5.28438677 19.5632773 5.47727082 19.6106571 5.67149435 19.6458098 5.86973629 19.6809626 6.07601507 19.7161154 6.48321473 19.7665519 6.90113018 19.7757222 7.28689828 19.7757222 7.46906656 19.7757222 7.64319799 19.7757222 7.82536626 19.7665519 7.98074508 19.7451546 8.13076601 19.7313992 8.27141063 19.7161154 8.4977815 19.6641504 8.65985768 19.6106571 8.8152365 19.5632773 9.10054416 19.4226662 9.22913353 19.3645877 9.35370448 19.2912254 9.55730431 19.1567279 9.74081206 19.0466845 9.87743826 18.9442829 9.97655923 18.8357679 10.131938 18.8556368 10.2524906 18.8709206 10.4909167 18.892318 10.6020929 18.892318 10.6971955 18.892318 10.769527 18.9091302 10.843198 18.9442829 10.9597321 18.9947195 11.0896609 19.0466845 11.3374634 19.1383873 11.5906237 19.2469024 11.8370866 19.3324917 12.0848891 19.3905702 12.3380494 19.4669893 12.6019255 19.5113123 12.8510674 19.5434083 13.1002093 19.5846746 13.3332775 19.6106571 13.5837589 19.6289976 13.8235245 19.6289976 14.0565927 19.6289976 14.2776057 19.6289976 14.5012976 19.5969016 14.7196316 19.5846746 14.9299288 19.5434083 15.1241524 19.4929717 15.3170364 19.4440635 15.5045626 19.3905702 15.5809125 19.3645877 15.6679782 19.3324917 15.8300544 19.2560727 15.973378 19.1765969 16.1073252 19.0955927 16.2332357 19.0084749 16.3457514 18.9091302 16.389954 18.8556368 16.4435329 18.7822745 16.5105065 18.6859865 16.5841775 18.5652444 16.6109669 18.5041092 16.6230222 18.4536726 16.6538301 18.3894806 16.6658853 18.3191751 16.6658853 18.2503979 16.6806195 18.1831492 16.6658853 18.0838044 16.6538301 17.9997435 16.6230222 17.8988703 16.5989117 17.8178661 16.5520301 17.716993 16.4971118 17.6252901 16.4435329 17.5458143 16.3712013 17.4785655 16.2225199 17.3257274 16.0550858 17.1790028 15.8876517 17.0613175 15.7108414 16.9421038 15.3049812 16.7067331 15.2085391 16.6364276 15.1817497 16.6043316 15.165676 16.5829342 15.3598995 16.3521487 15.4442863 16.2359917 15.5139389 16.1320618 15.6505651 15.8982195 15.7791545 15.6613205 15.8876517 15.4504039 15.9894517 15.2471292 16.1274173 14.8421082 16.2332357 14.504336 16.3055672 14.2659086 16.3457514 14.1864328 16.3712013 14.1222408 16.412725 14.0840312 16.4301381 14.0840312 16.4435329 14.0932015 16.5466722 14.3362141 16.6404353 14.5715848 16.7060695 14.7030256 16.7730431 14.8176541 16.8400167 14.9597936 16.925743 15.0973479 16.9980745 15.1936359 17.0422771 15.2471292 17.0851402 15.294509 17.1239849 15.3296618 17.1628296 15.3617578 17.2458769 15.410666 17.2900795 15.4290066 17.3182085 15.4290066 17.3570532 15.4290066 17.4012558 15.410666 17.4548347 15.37857 17.5151109 15.346474 17.5660109 15.294509 17.611553 15.2333738 17.6651319 15.1569547 17.7066555 15.0973479 17.753537 15.0041166 17.7883633 14.9261692 17.829887 14.8176541 17.852658 14.7274797 17.9129343 14.504336 17.951779 14.2582667 17.9799079 13.9846865 18 13.8257348 18 13.6927657 18 13.5521546 18 13.3794476 17.9705316 13.0615443 17.9276685 12.7039032 17.8740896 12.3539039 17.829887 12.1750833 17.7883633 11.9840357 17.733445 11.8021584 17.6771871 11.6004121 17.611553 11.4093644 17.5419004 11.2122033 17.41599 10.8927716 17.3034743 10.6100212 17.192298 10.3578383 17.095856 10.1224676 16.9846798 9.90849426 16.9016325 9.7113331 16.7288405 9.41788394 16.5105065 9.02814678 16.4596065 8.93033039 16.4435329 8.8890641 16.4435329 8.8569681 16.4796986 8.72399895 16.5305986 8.60784199 16.5734617 8.37552808 16.5989117 8.25631436 16.5989117 8.13251549 16.6109669 8.03164234 16.6109669 7.93229758 16.5989117 7.817669 16.5841775 7.72290937 16.5520301 7.53339013 16.5105065 7.34845602 16.4716618 7.17727734 16.412725 7.01221219 16.3457514 6.8746579 16.2935119 6.74474551 16.2332357 6.62247503 16.1421515 6.44059768 16.1073252 6.37640568 16.0979489 6.31985558 16.0550858 5.96832794 16.0282964 5.73601403 15.9974885 5.44715001 15.9492675 5.15064409 15.8715781 4.80981512 15.8300544 4.62029587 15.7952281 4.45828748 15.7470071 4.27029661 15.6934282 4.0700787 15.6398493 3.88514459 15.5715362 3.68645506 15.4322311 3.30130304 15.3491838 3.11942569 15.2500628 2.91156587 15.1562997 2.73121691 15.0625366 2.52947061 14.9299288 2.34147975 14.8187526 2.15807402 14.6821264 1.97008316 14.5441607 1.80043286 14.4035161 1.63689609 14.2374215 1.46571741 14.1503558 1.40305379 14.068648 1.31899283 13.8891586 1.16921149 13.6828799 1.0072031 13.4712432 0.860478523 13.2542486 0.729037754 13.0158225 0.608295652 12.7921306 0.493667075 12.5590624 0.394322307 12.3045626 0.311789731 12.0728338 0.238427442 11.8236919 0.174235438 11.5906237 0.106986673 11.3374634 0.0733622897 11.0896609 0.0382095259 10.843198 0 10.5886982 0 10.3408958 0 10.1024697 0 9.85332775 0.0183405724"></polygon>
                <rect id="Rectangle-19-Copy-4" opacity="0.400000006" x="0" y="0" width="20" height="20"></rect>
            </g>
        </g>
    </g>
</svg>
